# xmcd
#
# Track frame offsets:
#	150
#	11781
#	26541
#	40243
#	49525
#	60769
#	76815
#	94333
#	108038
#	120325
#	135562
#	148414
#	163076
#	179537
#	190141
#	199704
#	212057
#
# Disc length: 3046 seconds
#
# Revision: 1
# Processed by: cddbd v1.5.2PL0 Copyright (c) Steve Scherf et al.
# Submitted via: audiograbber 1.83.01
#
DISCID=e10be411
DTITLE=Superstars of Country - Bed of Roses
DYEAR=2013
DGENRE=Country
TTITLE0=Willie Nelson - On The Road Again
TTITLE1=Eddie Rabbitt - Drivin' My Life Away
TTITLE2=B.J. Thomas - Raindrops Keep Falling On My Head
TTITLE3=Charley Pride - Kiss An Angel Good Mornin'
TTITLE4=Freddie Hart - Easy Loving
TTITLE5=Marty Robbins - My Woman, My Woman, My Wife
TTITLE6=Kenny Rogers - Lady
TTITLE7=George Jones - A Good Year For The Roses
TTITLE8=Freddy Fender - Wasted Days And Wasted Nights
TTITLE9=Jessi Colter - I'm Not Lisa
TTITLE10=Mickey Gilley - A Room Full Of Roses
TTITLE11=Jeanne Pruett - Satin Sheets
TTITLE12=Alabama - The Closer You Get
TTITLE13=Barbara Mandrell - Sleeping Single In A Double Bed
TTITLE14=Tom T. Hall - I Love
TTITLE15=Donna Fargo - Funny Face
TTITLE16=Cal Smith - Country Bumpkin
EXTD=
EXTT0=
EXTT1=
EXTT2=
EXTT3=
EXTT4=
EXTT5=
EXTT6=
EXTT7=
EXTT8=
EXTT9=
EXTT10=
EXTT11=
EXTT12=
EXTT13=
EXTT14=
EXTT15=
EXTT16=
PLAYORDER=
